<?xml version="1.0" standalone="no"?>
<!DOCTYPE svg PUBLIC "-//W3C//DTD SVG 20010904//EN"
 "http://www.w3.org/TR/2001/REC-SVG-20010904/DTD/svg10.dtd">
<svg version="1.0" xmlns="http://www.w3.org/2000/svg"
 width="300.000000pt" height="281.000000pt" viewBox="0 0 300.000000 281.000000"
 preserveAspectRatio="xMidYMid meet">
<metadata>
Created by potrace 1.10, written by Peter Selinger 2001-2011
</metadata>
<g transform="translate(0.000000,281.000000) scale(0.100000,-0.100000)"
fill="#000000" stroke="none">
<path d="M990 2753 c-149 -10 -231 -39 -263 -93 -9 -14 -39 -42 -67 -61 -57
-39 -143 -140 -170 -202 -11 -23 -30 -57 -44 -76 -15 -19 -26 -39 -26 -44 0
-5 10 3 22 19 12 16 26 32 31 35 4 3 14 22 21 43 22 63 102 163 170 212 35 25
69 57 74 70 24 52 172 91 308 81 44 -4 115 -9 159 -11 l80 -5 -65 9 c-36 4
-85 13 -110 19 -25 6 -52 10 -60 9 -8 -1 -35 -3 -60 -5z"/>
<path d="M1334 2675 c26 -25 59 -48 74 -51 15 -4 40 -18 55 -31 16 -12 37 -23
48 -23 10 0 34 -12 51 -27 83 -71 138 -127 138 -140 0 -7 18 -33 40 -57 50
-55 66 -101 45 -133 -9 -13 -15 -43 -14 -70 l1 -48 9 44 c5 25 13 49 19 55 14
14 13 92 -1 119 -12 21 -61 82 -118 142 -56 59 -137 122 -173 134 -20 7 -42
19 -48 27 -7 7 -18 14 -25 14 -7 0 -39 20 -71 45 -74 58 -89 58 -30 0z"/>
<path d="M1316 2282 c-4 -18 -5 -36 -2 -39 11 -12 17 5 14 39 l-3 33 -9 -33z"/>
<path d="M1680 2304 c0 -3 10 -20 23 -37 12 -17 27 -43 34 -57 7 -15 12 -19
12 -9 1 8 -12 36 -29 62 -27 43 -40 56 -40 41z"/>
<path d="M1203 2193 c-6 -32 -9 -60 -7 -62 5 -6 24 47 30 85 9 59 -12 37 -23
-23z"/>
<path d="M1695 2100 c6 -10 4 -12 -7 -8 -12 5 -14 0 -7 -30 4 -21 12 -50 17
-67 8 -24 11 -26 13 -10 5 44 4 75 -2 75 -4 0 -5 8 -2 19 3 10 -1 22 -8 26 -8
6 -10 4 -4 -5z"/>
<path d="M1777 2076 c-6 -14 -11 -162 -6 -181 1 -5 5 35 9 90 7 104 6 116 -3
91z"/>
<path d="M1626 2045 c-18 -18 -21 -35 -6 -35 11 0 34 39 27 46 -3 3 -12 -2
-21 -11z"/>
<path d="M1356 1999 c3 -5 -9 -9 -26 -9 -17 0 -29 -4 -26 -8 6 -10 74 -3 81 8
3 4 -4 10 -15 13 -11 3 -18 1 -14 -4z"/>
<path d="M1389 1935 c-3 -2 -29 -7 -58 -10 -56 -5 -74 -12 -67 -24 3 -4 -17
-15 -44 -25 -43 -15 -48 -20 -40 -36 8 -15 6 -17 -9 -13 -16 4 -19 1 -14 -16
4 -16 2 -20 -10 -15 -9 3 -18 12 -21 20 -3 8 -13 14 -21 14 -14 0 -13 -4 4
-26 26 -33 27 -48 4 -39 -14 5 -15 4 -6 -6 9 -9 17 -8 37 4 48 32 76 63 65 74
-7 7 12 18 63 36 121 43 148 48 177 33 14 -8 38 -19 54 -25 47 -18 53 -49 33
-156 -21 -112 -39 -136 -88 -117 -27 10 -33 9 -44 -6 -7 -9 -13 -28 -14 -42 0
-23 1 -23 22 10 11 19 23 29 25 23 3 -7 -5 -27 -17 -44 -20 -27 -44 -99 -34
-99 2 0 18 25 35 55 31 55 46 68 46 40 0 -8 -4 -15 -9 -15 -4 0 -8 -9 -8 -20
0 -11 -4 -20 -9 -20 -17 0 -61 -88 -61 -121 0 -26 -12 -43 -72 -100 l-72 -69
-22 102 c-26 125 -58 235 -89 304 -20 44 -29 54 -59 62 -44 12 -95 0 -121 -28
-15 -17 -17 -31 -12 -93 6 -67 79 -382 91 -395 20 -19 17 24 -9 116 -16 59
-29 125 -28 147 1 31 -1 36 -8 20 -8 -17 -9 -16 -6 7 2 15 1 25 -3 23 -5 -3
-6 14 -3 37 3 32 2 39 -6 28 -9 -12 -11 -11 -11 8 0 13 4 20 10 17 6 -3 10 -1
10 4 0 6 -4 11 -10 11 -13 0 -13 31 0 50 8 11 9 7 5 -15 -5 -27 -4 -28 6 -9
15 29 49 44 75 32 26 -12 84 -99 86 -132 1 -13 6 -22 10 -20 4 3 8 -3 9 -13 0
-10 2 -25 5 -33 2 -8 13 -58 25 -110 12 -55 28 -103 38 -113 17 -17 21 -18 47
-3 47 25 114 94 130 134 9 20 26 60 39 87 13 28 29 70 36 95 7 25 23 58 36 73
30 37 43 86 49 182 l6 80 -40 43 c-35 37 -45 42 -84 42 -25 0 -47 -2 -49 -5z
m-307 -302 c31 -37 30 -47 -3 -18 -19 17 -36 31 -38 33 -2 1 2 2 11 2 8 0 22
-8 30 -17z"/>
<path d="M1000 1908 c-21 -9 -22 -12 -7 -15 23 -6 22 -19 -3 -26 -11 -3 -18
-1 -14 4 3 5 0 9 -5 9 -6 0 -11 -4 -11 -10 0 -5 -12 -10 -27 -10 -34 0 -42 -5
-77 -52 -16 -21 -32 -35 -37 -32 -5 3 -23 3 -39 -1 -27 -6 -28 -8 -15 -22 8
-8 20 -24 26 -35 9 -17 8 -18 -8 -10 -10 6 -29 24 -42 41 -13 17 -31 31 -40
31 -17 -1 -72 -29 -57 -30 5 0 0 -10 -11 -22 -26 -29 -33 -75 -22 -163 12
-101 18 -122 30 -104 7 11 9 11 9 -5 0 -10 11 -27 25 -38 14 -11 32 -32 39
-47 37 -72 173 -202 232 -224 88 -31 90 -17 5 28 -47 24 -89 52 -95 62 -5 10
-39 48 -74 86 -36 37 -63 70 -59 73 3 3 20 -10 37 -30 18 -20 38 -36 45 -36 7
0 15 -5 17 -12 2 -6 15 -13 29 -14 l24 -4 -27 23 c-16 13 -28 28 -28 34 0 7
-5 15 -11 19 -8 4 -9 -1 -4 -17 6 -17 -5 -10 -38 26 -45 50 -56 75 -17 40 24
-22 26 -8 4 24 l-16 22 -23 -21 c-13 -12 -28 -19 -34 -15 -24 14 -41 68 -47
147 -6 72 -4 91 14 131 12 26 26 47 32 47 12 0 60 -29 75 -46 18 -21 59 -44
77 -44 14 0 12 5 -10 27 -17 17 -22 28 -14 31 6 2 19 -4 28 -12 23 -23 44 -20
42 7 0 12 3 36 7 52 5 22 5 27 -3 20 -6 -6 -13 -22 -15 -35 -2 -14 -7 -24 -10
-22 -8 2 -8 3 0 42 7 38 17 43 121 68 69 16 84 17 93 6 6 -8 16 -14 22 -14 6
0 2 7 -9 16 -19 15 -18 15 4 11 22 -5 30 7 12 18 -6 4 -8 11 -5 16 4 5 3 10
-2 10 -47 7 -72 6 -93 -3z"/>
<path d="M1345 1835 c-40 -30 -76 -50 -85 -47 -12 5 -13 3 -3 -9 7 -8 17 -26
23 -40 10 -24 10 -24 7 4 -4 22 3 34 36 62 22 19 45 35 51 35 6 -1 2 -8 -9
-18 -12 -9 -27 -33 -34 -52 -7 -19 -18 -45 -24 -57 -13 -27 0 -45 14 -20 6 9
14 15 19 12 5 -3 12 -1 15 5 4 6 1 9 -7 8 -28 -6 -17 39 23 92 36 47 41 51 37
27 -4 -18 -2 -25 4 -19 5 5 8 23 6 39 l-3 30 -70 -52z"/>
<path d="M1461 1866 c-14 -16 -33 -145 -29 -193 2 -30 7 -39 25 -41 14 -2 26
4 32 17 10 17 8 20 -16 23 -14 2 -28 9 -31 16 -3 10 4 12 32 7 29 -6 36 -4 36
9 0 9 -5 16 -11 16 -5 0 -7 -4 -4 -10 9 -15 -2 -12 -30 6 -34 22 -31 34 5 24
40 -11 48 4 10 20 -17 7 -30 16 -30 21 0 9 28 1 48 -14 9 -7 17 -6 25 3 9 10
9 14 -2 17 -10 4 -11 7 -1 13 19 12 4 55 -24 68 -19 8 -27 8 -35 -2z m56 -33
c3 -8 1 -19 -5 -25 -9 -9 -8 -16 1 -26 10 -13 9 -14 -3 -9 -8 4 -23 10 -33 13
-24 9 -15 29 12 28 27 -1 28 13 1 21 -11 3 -20 10 -20 15 0 13 41 -1 47 -17z"/>
<path d="M1754 1864 c-3 -10 -13 -32 -21 -49 l-16 -30 20 18 c12 10 24 30 28
44 7 30 -2 45 -11 17z"/>
<path d="M484 1825 c4 -16 10 -42 13 -58 3 -15 10 -30 17 -34 6 -3 8 -3 4 2
-4 4 -4 13 1 19 5 7 -2 29 -16 56 -21 38 -24 40 -19 15z"/>
<path d="M1035 1833 c4 -10 8 -24 8 -30 0 -7 4 -13 9 -13 5 0 7 -4 4 -9 -4 -5
0 -12 6 -14 10 -4 10 -6 0 -6 -7 -1 -10 -6 -6 -12 4 -7 1 -10 -7 -7 -8 3 -13
11 -11 17 1 6 -3 11 -9 11 -6 0 -9 9 -6 20 3 11 1 20 -4 20 -5 0 -9 8 -9 17 0
9 -2 14 -5 11 -3 -3 1 -33 9 -67 l14 -61 -26 6 c-24 5 -25 4 -8 -6 14 -10 26
-8 57 5 21 10 39 20 39 23 0 10 -52 112 -57 112 -3 0 -2 -8 2 -17z"/>
<path d="M437 1833 c-12 -11 -7 -96 8 -147 8 -26 12 -53 8 -59 -3 -5 -1 -7 4
-4 6 4 16 0 23 -7 9 -11 9 -20 -1 -38 -11 -21 -11 -22 4 -10 12 10 21 11 36 2
17 -9 21 -8 21 4 0 9 -9 20 -21 26 -16 9 -19 18 -15 38 3 15 3 21 0 15 -8 -19
-27 -16 -20 3 3 8 2 12 -3 9 -13 -8 -20 6 -30 62 -7 34 -6 50 2 55 8 5 9 8 1
8 -7 0 -9 11 -6 25 4 25 1 31 -11 18z"/>
<path d="M920 1779 c0 -11 7 -19 18 -20 11 -1 9 -4 -8 -9 -24 -8 -24 -8 -2 -9
25 -1 31 -31 6 -31 -8 0 -12 5 -9 10 3 6 2 10 -3 10 -5 0 -12 -9 -15 -19 -3
-15 2 -20 22 -24 14 -3 27 -1 29 3 2 5 11 7 20 4 15 -5 15 -4 0 6 -11 6 -18
23 -18 40 0 22 -5 30 -17 31 -12 1 -9 4 7 8 l25 7 -27 6 c-23 4 -28 2 -28 -13z"/>
<path d="M1382 1788 c-8 -11 -9 -35 -4 -87 3 -23 39 31 44 67 5 37 -2 41 -20
11 -7 -12 -16 -18 -19 -15 -3 3 0 12 7 21 7 8 10 15 7 15 -2 0 -9 -6 -15 -12z"/>
<path d="M395 1713 c9 -21 13 -48 10 -61 -5 -21 -3 -22 14 -12 20 10 20 11 1
43 -11 17 -20 40 -20 50 0 9 -5 17 -10 17 -6 0 -4 -16 5 -37z"/>
<path d="M1192 1721 c-43 -16 -44 -17 -39 -56 2 -22 16 -73 31 -114 14 -41 36
-122 48 -180 11 -58 22 -108 24 -110 3 -3 10 1 17 8 9 9 9 14 -2 20 -10 6 -10
10 -1 16 7 4 9 18 5 36 -4 18 -3 29 4 29 22 0 11 30 -11 31 -17 1 -19 2 -5 6
25 6 21 23 -5 24 -22 0 -22 1 -3 9 19 9 19 9 -2 16 -33 9 -28 24 7 24 28 0 30
2 19 21 -7 14 -17 19 -30 16 -12 -3 -19 0 -19 9 0 8 10 14 25 14 18 0 25 5 25
20 0 13 -5 18 -15 14 -9 -4 -15 0 -15 10 0 9 5 16 10 16 7 0 7 7 0 21 -6 11
-19 19 -28 18 -33 -3 -53 1 -48 10 4 5 17 8 31 6 14 -1 28 2 31 6 3 5 -14 9
-37 9 -52 0 -48 6 10 14 42 6 69 16 42 16 -8 0 -11 8 -8 20 6 23 -2 24 -61 1z
m52 -118 c-9 -36 -12 -39 -27 -24 -9 11 -9 14 1 18 6 3 12 11 12 19 0 8 5 14
10 14 6 0 8 -11 4 -27z"/>
<path d="M1357 1693 c-4 -3 -7 -14 -7 -23 0 -9 -9 -25 -20 -35 -11 -10 -20
-25 -20 -33 0 -13 3 -13 18 1 10 10 24 17 30 17 7 0 12 16 12 40 0 41 -2 45
-13 33z"/>
<path d="M1394 1683 c-6 -10 -7 -29 -4 -43 l7 -25 7 27 c4 14 6 34 4 43 -3 14
-4 14 -14 -2z"/>
<path d="M651 1668 c-1 -14 -4 -35 -7 -45 -6 -17 -6 -17 11 -1 14 13 15 21 7
45 l-10 28 -1 -27z"/>
<path d="M672 1628 c-19 -24 -19 -83 1 -72 10 6 10 4 0 -7 -7 -7 -13 -19 -13
-27 0 -12 3 -12 15 -2 12 10 15 10 15 -3 0 -8 -5 -17 -11 -19 -12 -4 -1 -38
12 -38 20 0 22 36 5 98 -9 35 -15 67 -12 69 3 3 8 -6 11 -20 4 -14 18 -35 31
-48 13 -12 24 -31 24 -41 0 -16 46 -45 56 -35 2 2 -14 23 -36 47 -22 24 -40
49 -40 55 0 6 -11 21 -23 34 -19 17 -26 19 -35 9z"/>
<path d="M812 1615 c6 -14 15 -25 19 -25 5 0 6 -7 3 -15 -5 -11 -2 -13 10 -9
21 8 21 -5 -1 -21 -9 -7 -13 -17 -9 -23 11 -19 26 -14 19 6 -5 14 -3 13 10 -3
20 -25 21 -35 3 -35 -24 0 -30 -21 -11 -38 17 -16 17 -16 11 3 -7 19 -6 19 11
3 16 -17 16 -18 -1 -31 -24 -17 -13 -37 15 -30 19 5 20 3 10 -14 -5 -11 -8
-23 -5 -25 2 -3 6 -20 9 -38 2 -18 9 -37 16 -41 7 -4 14 -15 15 -24 1 -9 11
-23 21 -31 12 -8 13 -13 5 -14 -17 0 -5 -20 12 -20 10 0 4 30 -20 112 -18 62
-38 146 -45 188 -6 41 -16 92 -21 113 -10 34 -14 37 -49 37 -37 0 -38 -1 -27
-25z"/>
<path d="M1368 1604 c-5 -4 -8 -15 -8 -24 0 -10 -7 -23 -15 -30 -8 -7 -15 -19
-15 -27 0 -12 3 -13 13 -4 8 6 17 8 20 4 4 -3 9 1 12 10 9 21 2 81 -7 71z"/>
<path d="M1367 1503 c-4 -3 -7 -16 -7 -28 0 -13 -7 -28 -15 -35 -8 -7 -15 -19
-15 -26 0 -11 4 -12 19 -2 11 7 22 28 25 51 7 40 5 52 -7 40z"/>
<path d="M761 1477 c-2 -16 30 -80 36 -74 3 4 12 2 20 -4 23 -19 14 6 -9 28
-13 11 -28 29 -35 39 -6 10 -12 15 -12 11z"/>
<path d="M1645 1410 c-4 -6 -5 -14 -2 -17 9 -8 79 -23 112 -23 17 0 78 -15
135 -34 58 -19 119 -36 136 -39 17 -3 61 -21 99 -38 52 -25 76 -44 99 -78 17
-24 37 -49 45 -55 49 -38 91 -91 107 -133 23 -63 27 -68 88 -102 79 -46 98
-67 91 -103 -8 -35 11 -61 67 -89 20 -10 38 -24 41 -31 4 -10 6 -10 6 0 1 7
-7 19 -16 26 -82 66 -83 68 -83 101 0 35 -11 47 -109 118 -34 24 -49 45 -64
87 -15 40 -38 72 -82 115 -34 33 -71 75 -84 93 -22 32 -168 112 -204 112 -8 0
-62 15 -119 34 -57 19 -132 37 -168 41 -36 4 -70 11 -77 17 -7 6 -14 5 -18 -2z"/>
<path d="M1741 1326 c2 -2 42 -11 89 -20 47 -10 99 -24 115 -33 44 -22 75 -33
75 -27 0 11 -116 58 -175 70 -58 13 -113 18 -104 10z"/>
<path d="M570 1177 c-120 -82 -186 -105 -325 -116 -62 -5 -84 -9 -72 -15 27
-13 160 0 195 18 17 9 46 16 65 16 24 0 49 12 90 43 61 46 134 93 160 103 20
7 23 24 5 23 -7 -1 -60 -33 -118 -72z"/>
<path d="M1530 1195 c-43 -24 -154 -73 -183 -80 -23 -6 -49 -25 -33 -25 24 0
266 105 266 115 0 9 -25 4 -50 -10z"/>
<path d="M1594 1187 c-5 -14 8 -106 20 -137 14 -35 -333 -329 -389 -331 l-30
-1 27 -10 c31 -11 26 -13 133 73 39 30 113 89 165 131 124 98 200 179 200 212
0 31 13 39 50 31 37 -8 38 -26 5 -80 -14 -22 -25 -49 -25 -60 0 -11 -9 -31
-20 -45 -11 -14 -20 -32 -20 -40 0 -23 48 60 61 105 24 85 48 80 95 -19 18
-39 33 -66 34 -60 0 22 -43 119 -61 136 -11 9 -19 21 -19 27 0 20 -39 51 -64
51 -13 0 -35 -9 -49 -20 -16 -13 -32 -18 -44 -13 -13 4 -11 0 7 -15 l25 -22
-24 -20 c-34 -29 -51 -11 -51 56 0 51 -14 80 -26 51z"/>
<path d="M796 995 c-20 -30 -36 -63 -36 -73 0 -23 43 -90 73 -115 52 -43 158
-80 170 -60 3 4 -13 9 -36 10 -22 2 -43 7 -46 12 -3 4 -16 12 -29 15 -13 4
-43 29 -68 54 -41 43 -45 50 -40 86 3 25 14 48 30 63 21 19 37 63 22 63 -2 0
-20 -25 -40 -55z"/>
<path d="M915 1007 c-3 -7 -1 -27 5 -43 15 -40 91 -164 100 -164 4 0 28 -18
53 -40 31 -28 54 -40 74 -39 l28 1 -28 8 c-49 15 -140 104 -175 171 -18 34
-32 72 -32 85 0 27 -18 42 -25 21z"/>
<path d="M1555 904 c-26 -29 -35 -89 -12 -81 6 2 12 18 12 35 0 17 8 39 18 49
16 16 17 16 18 -7 0 -23 1 -23 9 -5 13 29 12 35 -5 35 -9 0 -27 -12 -40 -26z"/>
<path d="M722 875 c-19 -42 -14 -69 20 -101 l32 -29 -28 39 c-26 35 -28 41
-18 74 14 43 10 52 -6 17z"/>
<path d="M1542 775 c-1 -22 -5 -51 -8 -65 -5 -21 -4 -22 6 -7 6 9 9 39 7 65
-3 46 -3 46 -5 7z"/>
<path d="M2370 764 c0 -5 18 -28 40 -49 22 -21 40 -35 40 -30 -1 14 -80 92
-80 79z"/>
<path d="M204 727 c-20 -21 -128 -112 -167 -141 -20 -16 -37 -35 -37 -43 0
-10 12 -5 37 16 21 18 70 57 108 88 94 76 90 72 80 82 -6 6 -14 5 -21 -2z"/>
<path d="M1825 724 c-44 -7 -102 -18 -130 -24 -27 -6 -65 -14 -83 -17 -18 -3
-35 -9 -38 -15 -8 -13 5 -45 14 -32 10 15 126 54 154 52 30 -2 167 32 174 43
3 5 2 8 -3 8 -4 -1 -44 -8 -88 -15z"/>
<path d="M735 698 c11 -8 47 -22 80 -32 33 -10 68 -20 78 -23 13 -4 16 -1 11
11 -3 9 -16 16 -28 16 -20 0 -99 20 -141 35 -20 7 -20 7 0 -7z"/>
<path d="M1208 670 c-26 -16 -191 -24 -227 -12 -28 10 -31 9 -31 -8 0 -17 8
-19 93 -16 111 3 173 14 188 32 13 16 2 18 -23 4z"/>
<path d="M1503 668 c-28 -14 -30 -28 -3 -28 10 0 24 9 30 20 12 22 6 24 -27 8z"/>
<path d="M1325 630 l-40 -5 55 -8 c68 -8 139 -8 163 2 10 3 -15 6 -55 5 -40
-1 -75 1 -78 5 -3 3 -23 4 -45 1z"/>
<path d="M2634 618 c-4 -6 7 -23 27 -41 87 -75 189 -182 203 -212 15 -31 39
-118 70 -258 9 -37 23 -78 32 -90 15 -19 16 -20 9 -2 -4 11 -20 74 -36 140
-60 247 -50 227 -171 349 -59 60 -108 113 -108 118 0 12 -18 10 -26 -4z"/>
<path d="M771 606 c3 -3 36 -15 73 -25 50 -14 66 -15 66 -6 0 8 -20 16 -47 20
-27 3 -59 9 -73 12 -14 3 -22 3 -19 -1z"/>
<path d="M960 561 c0 -23 58 -29 356 -37 l212 -5 0 25 c0 30 -5 31 -32 11 -30
-23 -446 -10 -513 16 -19 7 -23 5 -23 -10z"/>
<path d="M1576 561 c-3 -5 -4 -15 -1 -23 4 -11 16 -12 60 -4 30 6 55 13 55 17
0 3 -21 7 -46 8 -26 0 -50 4 -54 6 -5 3 -11 1 -14 -4z"/>
<path d="M1728 175 c-5 -5 11 -79 33 -150 7 -23 8 -18 4 25 -3 30 -8 68 -11
83 l-6 28 35 -17 c20 -10 33 -22 30 -27 -4 -6 -1 -7 6 -2 8 4 24 -4 42 -21 16
-15 29 -23 29 -18 0 16 -39 49 -92 78 -48 26 -60 30 -70 21z"/>
<path d="M1776 85 c4 -27 8 -52 10 -54 9 -10 3 75 -6 89 -7 10 -8 -1 -4 -35z"/>
</g>
</svg>
